<?xml version="1.0" standalone="no"?>
<!DOCTYPE svg PUBLIC "-//W3C//DTD SVG 20010904//EN"
 "http://www.w3.org/TR/2001/REC-SVG-20010904/DTD/svg10.dtd">
<svg version="1.0" xmlns="http://www.w3.org/2000/svg"
 width="1024.000000pt" height="1024.000000pt" viewBox="0 0 1024.000000 1024.000000"
 preserveAspectRatio="xMidYMid meet">
<metadata>
Created by potrace 1.14, written by Peter Selinger 2001-2017
</metadata>
<g transform="translate(0.000000,1024.000000) scale(0.100000,-0.100000)"
fill="#000000" stroke="none">
<path d="M3130 7133 c-461 -33 -898 -231 -1223 -556 -358 -359 -546 -793 -564
-1307 -15 -435 120 -860 386 -1214 79 -105 265 -292 365 -367 576 -433 1314
-513 1975 -214 301 136 566 326 905 647 l109 103 111 -109 c338 -331 651 -545
1004 -685 211 -84 385 -120 622 -128 421 -14 783 88 1129 318 493 328 798 849
852 1458 20 226 -15 508 -92 744 -36 111 -140 329 -205 429 -181 281 -495 563
-768 688 -592 272 -1160 264 -1733 -24 -124 -61 -287 -162 -410 -253 -103 -75
-332 -275 -436 -380 l-77 -79 -108 106 c-293 286 -548 473 -837 615 -328 161
-670 232 -1005 208z m298 -1253 c181 -50 380 -175 615 -384 79 -71 257 -265
257 -281 0 -14 -178 -206 -265 -284 -358 -325 -653 -448 -915 -382 -211 52
-368 178 -460 366 -50 102 -70 187 -70 301 0 378 299 681 675 683 62 1 114 -5
163 -19z m3627 0 c300 -77 515 -354 515 -665 0 -200 -93 -402 -240 -521 -243
-196 -524 -217 -807 -58 -203 113 -465 331 -610 506 l-62 75 99 109 c105 117
228 228 372 337 276 208 504 276 733 217z"/>
</g>
</svg>
